<?xml version="1.0" encoding="UTF-8"?>
<svg version="1.1"
    xmlns="http://www.w3.org/2000/svg" width="1080" height="720">
    <path d="M0 0 C0.80052292 -0.00029205 1.60104584 -0.00058411 2.42582703 -0.00088501 C5.06093338 0.00050373 7.69575384 0.01604339 10.33081055 0.03173828 C12.16212306 0.03547003 13.99343758 0.03831624 15.82475281 0.04031372 C20.63670395 0.04793741 25.44853371 0.06757505 30.26043701 0.08972168 C36.03824607 0.11381129 41.81609579 0.12296711 47.59394073 0.1346283 C56.36438793 0.15400017 65.13456895 0.19233156 73.9050293 0.22705078 C74.2350293 16.39705078 74.5650293 32.56705078 74.9050293 49.22705078 C78.58113063 47.02138998 80.71731145 45.65535978 83.5300293 42.72705078 C84.38467773 41.84533203 84.38467773 41.84533203 85.2565918 40.94580078 C85.80057617 40.37861328 86.34456055 39.81142578 86.9050293 39.22705078 C87.9027488 38.22477548 88.90199442 37.22400666 89.9050293 36.22705078 C93.97334882 37.83118627 96.6285406 40.75851026 99.5925293 43.85205078 C101.34483389 45.66556136 103.11113357 47.45391087 104.9050293 49.22705078 C105.2350293 49.22705078 105.5650293 49.22705078 105.9050293 49.22705078 C106.2350293 33.05705078 106.5650293 16.88705078 106.9050293 0.22705078 C112.5150293 0.22705078 118.1250293 0.22705078 123.9050293 0.22705078 C126.50370145 2.82572293 126.14817864 4.61532903 126.17251611 8.15545511 C126.16805466 8.99260097 126.16359322 9.82974683 126.15899658 10.69226074 C126.16367655 12.02190361 126.16367655 12.02190361 126.16845107 13.37840796 C126.17646642 16.36643348 126.17009371 19.35425791 126.16381836 22.34228516 C126.16652665 24.47724019 126.17008667 26.61219429 126.17443848 28.74714661 C126.18358399 34.55898374 126.18000933 40.37075015 126.17368031 46.18258858 C126.16863147 52.25287192 126.17330864 58.32314904 126.17645264 64.39343262 C126.18009555 74.58912244 126.17528467 84.78478332 126.16577148 94.98046875 C126.15488632 106.78317188 126.15841167 118.58580592 126.1694243 130.38850737 C126.17848792 140.50569868 126.17978699 150.62286914 126.17454696 160.74006319 C126.17142216 166.78978896 126.17103185 172.83948222 126.17761993 178.88920593 C126.18337934 184.57560665 126.17942235 190.26191793 126.16783142 195.94830894 C126.16517729 198.04056843 126.16596267 200.13283538 126.17035675 202.22509193 C126.17578405 205.07077799 126.16901254 207.91617351 126.15899658 210.76184082 C126.16568875 212.01755961 126.16568875 212.01755961 126.17251611 213.29864645 C126.13332934 218.99875073 126.13332934 218.99875073 123.9050293 221.22705078 C121.62537384 221.487113 121.62537384 221.487113 118.72058105 221.50120544 C117.62161499 221.51118057 116.52264893 221.5211557 115.39038086 221.53143311 C114.17898437 221.53209778 112.96758789 221.53276245 111.71948242 221.53344727 C110.44778198 221.54177078 109.17608154 221.5500943 107.86584473 221.55867004 C104.36952673 221.58066014 100.87329624 221.58942121 97.37691689 221.59449649 C95.19014574 221.59813809 93.00339754 221.60437746 90.81663513 221.61149788 C83.18007399 221.63601865 75.54358091 221.64904764 67.90698242 221.65258789 C60.80307702 221.65621395 53.69960613 221.68603518 46.5958333 221.72799248 C40.48951516 221.76278587 34.38334017 221.77813797 28.27692366 221.77883393 C24.63345476 221.77962439 20.99042716 221.78825374 17.34706116 221.81683159 C13.27297879 221.84806905 9.19991556 221.83890969 5.12573242 221.82641602 C3.33292847 221.84866745 3.33292847 221.84866745 1.50390625 221.87136841 C-6.00384803 221.80600826 -11.88258992 220.63033012 -18.0949707 216.22705078 C-23.97509277 210.01998908 -26.39874147 204.23470403 -26.36912537 195.66975403 C-26.37436204 194.91708038 -26.37959872 194.16440672 -26.38499409 193.38892478 C-26.3999752 190.87112694 -26.40069883 188.35353268 -26.40136719 185.83569336 C-26.40899007 184.02854063 -26.41741779 182.22139114 -26.42658997 180.41424561 C-26.44853213 175.50699569 -26.45733377 170.59980809 -26.46241641 165.69251466 C-26.46606103 162.62446178 -26.47230172 159.55642519 -26.4794178 156.48837852 C-26.50391361 145.77845926 -26.51696399 135.06858842 -26.52050781 124.35864258 C-26.52414074 114.38670949 -26.55401843 104.41508463 -26.5959124 94.44324571 C-26.63064713 85.87404671 -26.64605682 77.30494966 -26.64675385 68.73568076 C-26.64754573 63.6212485 -26.65624314 58.50713009 -26.68475151 53.39277077 C-26.71098585 48.57864517 -26.71310741 43.76509238 -26.69709587 38.95092773 C-26.69528551 37.18936091 -26.70193466 35.42776076 -26.71791458 33.66626549 C-26.87082904 15.70741379 -26.87082904 15.70741379 -21.0949707 8.22705078 C-14.64150798 2.17279362 -8.861877 -0.08510034 0 0 Z M-8.0949707 26.22705078 C-8.16282266 44.66468968 -8.21803085 63.10222669 -8.25040722 81.53995895 C-8.26584305 90.10188025 -8.28686938 98.66371817 -8.32128906 107.22558594 C-8.3512924 114.69248331 -8.37056955 122.15932027 -8.37723619 129.62627625 C-8.38113002 133.57601802 -8.39021166 137.52558702 -8.41216087 141.47527313 C-8.43269931 145.20169642 -8.43876993 148.92787767 -8.43429375 152.65435219 C-8.43549765 154.65594718 -8.45154812 156.65751653 -8.4682312 158.65904236 C-8.43387636 168.81989553 -7.72379893 179.4193439 -0.97387695 187.53955078 C4.44932382 192.41028412 11.62880456 195.35715379 18.91668701 195.3473053 C19.704702 195.34867996 20.49271698 195.35005463 21.30461121 195.35147095 C22.15984879 195.34787567 23.01508636 195.3442804 23.89624023 195.34057617 C24.8039064 195.3407222 25.71157257 195.34086823 26.64674377 195.34101868 C29.64432166 195.34032249 32.64183727 195.3325438 35.6394043 195.32470703 C37.71877 195.32284181 39.79813614 195.3214184 41.87750244 195.32041931 C47.34866551 195.31660235 52.81980201 195.30677904 58.29095459 195.29571533 C63.87454875 195.28548359 69.45814721 195.28091791 75.04174805 195.27587891 C85.99618868 195.26515606 96.95060262 195.24756587 107.9050293 195.22705078 C107.9050293 184.33705078 107.9050293 173.44705078 107.9050293 162.22705078 C81.8350293 162.22705078 55.7650293 162.22705078 28.9050293 162.22705078 C28.9050293 117.34705078 28.9050293 72.46705078 28.9050293 26.22705078 C16.6950293 26.22705078 4.4850293 26.22705078 -8.0949707 26.22705078 Z " fill="white" transform="translate(78.094970703125,222.77294921875)"/>
    <path d="M0 0 C13.85218488 11.74137576 21.81513925 26.62021591 24.0625 44.625 C24.1453269 47.06130483 24.18037068 49.49954738 24.17602539 51.93725586 C24.17617142 52.63078156 24.17631744 53.32430725 24.1764679 54.03884888 C24.1757774 56.30588023 24.16802592 58.57282695 24.16015625 60.83984375 C24.158289 62.42167618 24.15686655 64.00350919 24.15586853 65.58534241 C24.15206755 69.72976301 24.14225814 73.87414805 24.13116455 78.01855469 C24.1190902 83.0013175 24.11453666 87.98409226 24.10871124 92.96686554 C24.09904491 100.51960169 24.0798715 108.07225995 24.0625 115.625 C12.5125 115.625 0.9625 115.625 -10.9375 115.625 C-11.2675 111.665 -11.5975 107.705 -11.9375 103.625 C-13.01 104.65625 -14.0825 105.6875 -15.1875 106.75 C-28.28406037 118.17761816 -43.30857091 119.69712832 -59.9375 118.625 C-74.24439137 116.82023159 -87.44931091 109.35395228 -96.9375 98.625 C-108.83513059 83.21443264 -114.54270738 65.17334736 -112.9375 45.625 C-110.33632807 27.21515529 -102.2724203 11.64783638 -87.9375 -0.375 C-61.25833792 -19.42670151 -26.52591268 -19.4677133 0 0 Z M-68.9375 31.625 C-74.44339635 39.56079448 -77.04937896 47.96994977 -75.9375 57.625 C-73.65058547 67.45736305 -68.31649934 74.96917545 -59.9375 80.625 C-51.30141875 85.19704302 -43.1119634 85.34734796 -33.765625 82.69921875 C-29.44603639 81.05849103 -26.27229575 78.78782198 -22.9375 75.625 C-22.38320313 75.11066406 -21.82890625 74.59632813 -21.2578125 74.06640625 C-15.63482809 68.23360899 -12.79152738 60.62386571 -12.5 52.5625 C-12.98659125 42.95232282 -16.14479726 35.48326937 -22.9375 28.625 C-30.29390605 22.55531515 -37.49703548 20.09398094 -47.03515625 20.31640625 C-55.83728777 21.2522991 -63.14937209 24.92918839 -68.9375 31.625 Z " fill="white" transform="translate(1009.9375,307.375)"/>
    <path d="M0 0 C17.92721429 -0.61358025 34.72859569 4.89923829 48.18994141 16.79541016 C59.80702458 27.84329973 64.51986403 42.72249248 66.625 58.16015625 C66.625 63.77015625 66.625 69.38015625 66.625 75.16015625 C35.935 75.16015625 5.245 75.16015625 -26.375 75.16015625 C-22.78002254 85.04634428 -20.0182603 92.1487307 -10.9296875 97.63671875 C-1.5922307 101.92023854 8.59595258 102.84774414 18.4375 99.53515625 C26.59521997 96.15094928 31.8924569 91.55475484 36.625 84.16015625 C40.61292946 85.4143831 44.29449404 86.87531206 48.0234375 88.76171875 C48.99667969 89.2515625 49.96992188 89.74140625 50.97265625 90.24609375 C52.47119141 91.00792969 52.47119141 91.00792969 54 91.78515625 C55.02222656 92.30078125 56.04445313 92.81640625 57.09765625 93.34765625 C59.60862669 94.61487498 62.11764561 95.88580181 64.625 97.16015625 C63.64414005 107.34600958 54.76139904 115.82478522 47.2734375 122.1953125 C31.60013684 133.8231447 12.23773791 136.28873975 -6.69580078 133.86279297 C-24.9617514 130.78323742 -40.65563672 121.3103217 -51.40234375 106.2421875 C-61.75559591 90.06651235 -64.87428081 70.67732864 -61.1875 51.91015625 C-58.52603348 41.01671189 -54.24683357 32.00417524 -47.375 23.16015625 C-46.90320313 22.52335937 -46.43140625 21.8865625 -45.9453125 21.23046875 C-36.54208568 9.27721432 -21.09751211 2.66601009 -6.375 0.47265625 C-4.25183069 0.27146884 -2.12785149 0.14348999 0 0 Z M-19.375 42.16015625 C-23.16315923 47.73083743 -23.16315923 47.73083743 -24.375 54.16015625 C-6.555 54.16015625 11.265 54.16015625 29.625 54.16015625 C26.79338567 45.66531325 24.5458149 40.30292955 17 35.78515625 C4.56520022 29.79803043 -9.7986316 32.36614312 -19.375 42.16015625 Z " fill="white" transform="translate(274.375,291.83984375)"/>
    <path d="M0 0 C12.21 0 24.42 0 37 0 C37.03738281 4.48078125 37.07476563 8.9615625 37.11328125 13.578125 C37.14360633 16.44014046 37.17478357 19.30209711 37.20898438 22.1640625 C37.26302599 26.69300124 37.31414432 31.22182369 37.34643555 35.75097656 C37.37270912 39.40814136 37.41327457 43.06490883 37.46318626 46.72182465 C37.47969434 48.10739903 37.49130745 49.49304188 37.49761391 50.87870026 C37.5571122 62.76519033 38.38481905 76.23512182 46.4609375 85.71484375 C51.461691 90.51603667 57.44262744 92.81891235 64.359375 93.09375 C69.22544411 92.75815903 73.03653658 91.30876965 77.2734375 88.9375 C79 88 79 88 82 87 C83.12200213 85.15770498 83.12200213 85.15770498 84 83 C84.33 82.37480469 84.66 81.74960937 85 81.10546875 C85.33 80.47253906 85.66 79.83960938 86 79.1875 C86.33 78.56230469 86.66 77.93710937 87 77.29296875 C89.35495126 71.89313909 90.25332427 66.82747743 90.31884766 60.96313477 C90.32889328 60.29886978 90.3389389 59.6346048 90.34928894 58.95021057 C90.37988569 56.78061699 90.39708957 54.61114541 90.4140625 52.44140625 C90.43279316 50.9268236 90.45236796 49.41225118 90.4727478 47.89768982 C90.52387481 43.93089858 90.56360388 39.96407359 90.60089111 35.99713135 C90.6481271 31.22701436 90.70964094 26.45706234 90.76873779 21.68708038 C90.85671296 14.45812089 90.92664641 7.22918921 91 0 C103.21 0 115.42 0 128 0 C128.16043524 18.07570341 128.16043524 18.07570341 128.1953125 25.87890625 C128.21907187 31.1692747 128.24694145 36.45936197 128.30175781 41.74951172 C128.3457487 46.02247666 128.36924721 50.2951394 128.37950897 54.5683136 C128.3868062 56.18513231 128.40105048 57.80193761 128.42292023 59.41862488 C128.68122307 79.33548628 124.34524263 98.24351095 110 113 C94.25630384 127.1399624 76.13464672 130.03263283 55.70751953 129.1953125 C38.88448134 127.98174798 25.54580751 120.3786632 14.25390625 108.1015625 C1.39813271 92.27393482 -0.1675561 72.61016598 -0.09765625 53.125 C-0.09578836 51.58943732 -0.09436621 50.05387404 -0.09336853 48.51831055 C-0.08957256 44.50049153 -0.0797676 40.48270936 -0.06866455 36.46490479 C-0.05657646 31.63146221 -0.05203427 26.79800724 -0.04621124 21.96455383 C-0.03655397 14.64301036 -0.01737709 7.32154754 0 0 Z " fill="white" transform="translate(639,297)"/>
    <path d="M0 0 C17.54891882 -0.60063264 34.26276702 4.70108989 47.625 16.16015625 C53.41072833 21.73893006 58.43267097 27.7167358 61.625 35.16015625 C61.625 35.82015625 61.625 36.48015625 61.625 37.16015625 C60.92415283 37.53825439 60.22330566 37.91635254 59.5012207 38.3059082 C56.31266688 40.02696212 53.12507542 41.74979096 49.9375 43.47265625 C48.83470703 44.06755859 47.73191406 44.66246094 46.59570312 45.27539062 C45.52900391 45.85224609 44.46230469 46.42910156 43.36328125 47.0234375 C42.38399658 47.55235596 41.40471191 48.08127441 40.39575195 48.6262207 C37.5995565 50.12806869 37.5995565 50.12806869 34.95385742 51.91870117 C34.18533447 52.32838135 33.41681152 52.73806152 32.625 53.16015625 C29.12519757 51.99355544 28.73680973 50.81862876 26.83203125 47.84375 C22.05518037 41.18089327 15.40960634 38.15707701 7.625 36.16015625 C-0.12950014 34.89614432 -8.23610173 37.39583683 -14.625 41.78515625 C-20.71021182 46.749408 -25.05687189 53.38320042 -26.375 61.16015625 C-27.12277146 69.38564235 -26.23539185 75.83433013 -22.375 83.16015625 C-22.03597656 83.80855469 -21.69695312 84.45695312 -21.34765625 85.125 C-17.81928532 90.86331143 -11.80962531 94.67587714 -5.47265625 96.796875 C3.70635709 98.38653653 11.73897681 97.71891717 19.9140625 93.16015625 C24.38713071 89.86014051 27.54358108 85.74603264 30.625 81.16015625 C34.61568835 81.7560101 37.53736624 83.01206546 41.0390625 84.99609375 C42.04710937 85.56585938 43.05515625 86.135625 44.09375 86.72265625 C45.1353125 87.32078125 46.176875 87.91890625 47.25 88.53515625 C48.82394531 89.42074219 48.82394531 89.42074219 50.4296875 90.32421875 C58.91205438 95.15264297 58.91205438 95.15264297 61.625 98.16015625 C58.06033857 105.57608505 53.36966411 111.30521063 47.625 117.16015625 C47.08230469 117.72734375 46.53960937 118.29453125 45.98046875 118.87890625 C33.74286274 130.52786792 16.76879776 133.67342887 0.50585938 133.58227539 C-17.77952472 133.08038175 -33.47022346 125.74827866 -46.52734375 113.0703125 C-59.79173529 98.99121745 -64.99024034 81.78188289 -64.6484375 62.74609375 C-63.91974533 45.65429432 -56.46866975 31.11009818 -44.375 19.16015625 C-43.68792969 18.45117188 -43.00085938 17.7421875 -42.29296875 17.01171875 C-30.89005042 5.9684472 -15.5646331 1.04958875 0 0 Z " fill="white" transform="translate(430.375,292.83984375)"/>
    <path d="M0 0 C12.21 0 24.42 0 37 0 C37 10.56 37 21.12 37 32 C51.52 32 66.04 32 81 32 C81 42.23 81 52.46 81 63 C66.48 63 51.96 63 37 63 C37.05113826 69.97525895 37.11420513 76.94832149 37.20751953 83.92285156 C37.23566889 86.29322156 37.25691329 88.66368438 37.27099609 91.03417969 C37.29250851 94.45035106 37.33920394 97.86541355 37.390625 101.28125 C37.39185364 102.33364868 37.39308228 103.38604736 37.39434814 104.47033691 C37.53233394 111.47110765 38.50468709 117.3318285 43.48223877 122.55554199 C49.60939505 127.91381601 56.28709335 127.56390098 64.02099609 127.20117188 C68.93670933 126.7014744 73.45936659 124.84741457 78 123 C78.99 122.67 79.98 122.34 81 122 C81 133.22 81 144.44 81 156 C65.82990681 162.06803728 45.70178199 164.45544669 30 158 C17.43595412 152.35899981 9.19510757 144.86453408 3.77734375 132.125 C1.2649379 125.49729138 -0.12993246 119.39068717 -0.11352539 112.27001953 C-0.11344986 111.16933136 -0.11337433 110.06864319 -0.11329651 108.93460083 C-0.10813522 107.76251068 -0.10297394 106.59042053 -0.09765625 105.3828125 C-0.0962413 104.17051971 -0.09482635 102.95822693 -0.09336853 101.709198 C-0.08778345 97.84777327 -0.07523361 93.98640712 -0.0625 90.125 C-0.05748308 87.50260501 -0.0529205 84.8802091 -0.04882812 82.2578125 C-0.03781889 75.8385192 -0.02056444 69.41926952 0 63 C-7.59 63 -15.18 63 -23 63 C-23 52.77 -23 42.54 -23 32 C-15.41 32 -7.82 32 0 32 C0 21.44 0 10.88 0 0 Z " fill="white" transform="translate(529,265)"/>
    <path d="M0 0 C1.02996094 -0.020625 2.05992187 -0.04125 3.12109375 -0.0625 C10.26050927 -0.09842159 16.63540123 0.8226628 23.375 3.25 C24.375 4.25 24.375 4.25 24.48852539 7.66821289 C24.48836628 9.18636988 24.48267226 10.70453229 24.47265625 12.22265625 C24.4712413 13.02029892 24.46982635 13.81794159 24.46836853 14.63975525 C24.46275316 17.19737435 24.45019812 19.75490718 24.4375 22.3125 C24.43248698 24.04231645 24.42792373 25.77213426 24.42382812 27.50195312 C24.41277875 31.75133553 24.39550386 36.00065312 24.375 40.25 C21.43398988 39.27914169 18.51437427 38.30384915 15.625 37.1875 C8.07790912 35.01045455 0.85369303 34.58886997 -6.625 37.25 C-8.98459458 38.74486846 -8.98459458 38.74486846 -10.625 40.25 C-11.285 40.25 -11.945 40.25 -12.625 40.25 C-17.80267677 50.43645236 -18.0946453 59.58509413 -18.13671875 70.75390625 C-18.15358714 72.44499498 -18.17174025 74.13607133 -18.19111633 75.82713318 C-18.23838825 80.25094739 -18.26834451 84.67471142 -18.29455566 89.09869385 C-18.32974935 94.42120027 -18.3866965 99.74351407 -18.43994904 105.06586456 C-18.5181952 113.12721774 -18.56900273 121.18832341 -18.625 129.25 C-30.835 129.25 -43.045 129.25 -55.625 129.25 C-55.74532643 109.88635816 -55.74532643 109.88635816 -55.77148438 101.54492188 C-55.7893227 95.88362039 -55.8102783 90.22246635 -55.85131836 84.5612793 C-55.88424414 79.99007631 -55.90192199 75.41903174 -55.90963173 70.84771919 C-55.9151163 69.11566237 -55.92582356 67.38361286 -55.94219017 65.65162468 C-56.11741665 46.31509377 -53.89793494 27.77701814 -39.78125 13.14453125 C-28.37035294 3.11865249 -14.74560536 0.07219391 0 0 Z " fill="white" transform="translate(856.625,293.75)"/>
    <path d="M0 0 C71.28 0 142.56 0 216 0 C216 1.65 216 3.3 216 5 C144.72 5 73.44 5 0 5 C0 3.35 0 1.7 0 0 Z " fill="white" transform="translate(52,472)"/>
    <path d="M0 0 C2.475 0.495 2.475 0.495 5 1 C6.98 7.93 8.96 14.86 11 22 C12.98 14.74 14.96 7.48 17 0 C18.98 0 20.96 0 23 0 C23.84145956 3.08117427 24.67173062 6.16525621 25.5 9.25 C25.73847656 10.12269531 25.97695313 10.99539063 26.22265625 11.89453125 C26.44824219 12.73886719 26.67382812 13.58320313 26.90625 14.453125 C27.11572266 15.22817383 27.32519531 16.00322266 27.54101562 16.80175781 C28 19 28 19 28 23 C28.66 23 29.32 23 30 23 C30.0825 21.989375 30.165 20.97875 30.25 19.9375 C31.07228298 13.15059716 33.16101459 6.56902694 35 0 C36.65 0 38.3 0 40 0 C38.65179804 7.31967174 36.87481086 14.45821371 34.875 21.625 C34.59785156 22.62917969 34.32070313 23.63335937 34.03515625 24.66796875 C33.35989931 27.11286455 32.68147179 29.55683066 32 32 C30.02 32 28.04 32 26 32 C24.02 24.74 22.04 17.48 20 10 C18.06681907 16.86507441 18.06681907 16.86507441 16.14086914 23.73217773 C15.89973389 24.58239502 15.65859863 25.4326123 15.41015625 26.30859375 C15.16402588 27.18314209 14.91789551 28.05769043 14.66430664 28.95874023 C14 31 14 31 13 32 C11.33382885 32.04063832 9.66611905 32.042721 8 32 C6.85385832 28.08757221 5.71474464 24.17317321 4.58203125 20.25683594 C4.19592586 18.92554975 3.80792331 17.59481223 3.41796875 16.26464844 C2.85695836 14.34977112 2.30338797 12.43271904 1.75 10.515625 C1.41484375 9.36352539 1.0796875 8.21142578 0.734375 7.02441406 C0 4 0 4 0 0 Z " fill="white" transform="translate(287,454)"/>
    <path d="M0 0 C1.98 0 3.96 0 6 0 C9.3 7.92 12.6 15.84 16 24 C19.3 16.08 22.6 8.16 26 0 C27.98 0 29.96 0 32 0 C32 10.56 32 21.12 32 32 C30.68 32 29.36 32 28 32 C27.505 22.1 27.505 22.1 27 12 C24.36 18.6 21.72 25.2 19 32 C17.35 32 15.7 32 14 32 C10.60332223 25.45721905 7.65324022 18.87877094 5 12 C4.67 18.6 4.34 25.2 4 32 C2.68 32 1.36 32 0 32 C0 21.44 0 10.88 0 0 Z " fill="white" transform="translate(651,454)"/>
    <path d="M0 0 C0.66 0 1.32 0 2 0 C3.32 0 4.64 0 6 0 C6.0990914 4.05664947 6.17157106 8.1128277 6.21972656 12.17041016 C6.23980642 13.5497668 6.26707666 14.92903869 6.30175781 16.30810547 C6.35042817 18.29356979 6.37086418 20.27966254 6.390625 22.265625 C6.41157227 23.45961914 6.43251953 24.65361328 6.45410156 25.88378906 C5.90866755 29.62675667 4.97487258 30.74232018 2 33 C-2.26183659 34.4206122 -6.71273845 35.10270083 -10.85546875 33.10546875 C-12.28816368 32.14239828 -13.65198441 31.07841247 -15 30 C-14.67 29.01 -14.34 28.02 -14 27 C-13.01 26.67 -12.02 26.34 -11 26 C-10.4225 26.495 -9.845 26.99 -9.25 27.5 C-6.92730313 29.38531741 -6.92730313 29.38531741 -3.25 28.6875 C-2.1775 28.460625 -1.105 28.23375 0 28 C0.33 26.02 0.66 24.04 1 22 C0.01 22.66 -0.98 23.32 -2 24 C-5.29298055 24.43492196 -7.80334957 24.69293789 -10.75390625 22.984375 C-13.45601856 20.82268515 -14.8966607 19.31001789 -16 16 C-16.36631844 10.41364386 -16.23232115 6.79275206 -13 2 C-8.65386868 -1.8494306 -5.36782035 -0.9679676 0 0 Z M-8.8125 4.375 C-11.56803144 7.68163773 -11.67452821 9.66515966 -11.41796875 13.8671875 C-11.09170798 16.19694897 -11.09170798 16.19694897 -9.375 18.625 C-7.01547019 20.24645806 -7.01547019 20.24645806 -3.9375 20.0625 C-0.90006967 19.22169848 -0.90006967 19.22169848 0.9375 16.875 C2.31082813 13.15893564 1.91957183 10.81975992 1 7 C-0.67379032 3.8797337 -0.67379032 3.8797337 -3.3125 3.0625 C-6.11911882 2.79108636 -6.11911882 2.79108636 -8.8125 4.375 Z " fill="white" transform="translate(1000,462)"/>
    <path d="M0 0 C1.65 0 3.3 0 5 0 C6.32 4.62 7.64 9.24 9 14 C10.76054874 9.35855331 12.46527032 4.72224516 14 0 C15.65 0 17.3 0 19 0 C21.5 7.5 21.5 7.5 24 15 C25.32 10.38 26.64 5.76 28 1 C29.65 0.67 31.3 0.34 33 0 C29.47956403 20.52043597 29.47956403 20.52043597 26 24 C24.35 24 22.7 24 21 24 C19.68 19.38 18.36 14.76 17 10 C15.23945126 14.64144669 13.53472968 19.27775484 12 24 C10.35 24 8.7 24 7 24 C6.01517124 21.12682985 5.0370007 18.25167255 4.0625 15.375 C3.78470703 14.56675781 3.50691406 13.75851562 3.22070312 12.92578125 C1.77046784 8.62749354 0.57796018 4.52125812 0 0 Z " fill="white" transform="translate(880,462)"/>
    <path d="M0 0 C1.65 0 3.3 0 5 0 C5.33 4.29 5.66 8.58 6 13 C7.19496094 11.59234375 7.19496094 11.59234375 8.4140625 10.15625 C9.48349201 8.93672512 10.55385379 7.71801732 11.625 6.5 C12.40810547 5.56994141 12.40810547 5.56994141 13.20703125 4.62109375 C17.23937948 0.09092475 17.23937948 0.09092475 21.3984375 -0.40625 C22.25695312 -0.2721875 23.11546875 -0.138125 24 0 C20.72905967 5.45156722 16.58146674 9.61869443 12 14 C15.32067624 19.19297242 18.71500925 24.05243311 22.8984375 28.58984375 C24 30 24 30 24 32 C21.296875 32.375 21.296875 32.375 18 32 C16.09437553 29.98651 14.72842646 28.2871824 13.25 26 C11.87492283 23.95807939 10.47089039 21.97687668 9 20 C8.34 20 7.68 20 7 20 C5.26043342 21.73956658 5.62809614 24.1936622 5.4375 26.5625 C5.35371094 27.57441406 5.26992188 28.58632813 5.18359375 29.62890625 C5.12300781 30.41136719 5.06242188 31.19382812 5 32 C3.35 32 1.7 32 0 32 C0 21.44 0 10.88 0 0 Z " fill="white" transform="translate(799,454)"/>
    <path d="M0 0 C1.65 0 3.3 0 5 0 C5 10.56 5 21.12 5 32 C2.66666667 32 0.33333333 32 -2 32 C-2.99 32.495 -2.99 32.495 -4 33 C-8.63554388 33.41204834 -11.30416098 32.87454146 -15 30 C-18.10404031 25.1424492 -17.70273872 19.54054002 -17 14 C-15.73777224 10.87084933 -14.80901708 10.165284 -12 8 C-9.11883741 7.07511318 -7.11068885 7 -4 7 C-3.01 7.66 -2.02 8.32 -1 9 C-0.67 6.03 -0.34 3.06 0 0 Z M-12 14 C-13.36892489 18.25432345 -13.44205235 21.82119374 -11.875 26 C-10.11336415 28.12393698 -10.11336415 28.12393698 -7.625 29.125 C-4.7921256 29.22140265 -4.7921256 29.22140265 -2.1875 27.0625 C0.2330177 23.67377522 0.74593579 21.9954406 0.5 17.9375 C-0.35267708 14.6333763 -2.36419308 13.00823385 -5 11 C-8.20908881 11 -9.55477027 11.93095946 -12 14 Z " fill="white" transform="translate(973,454)"/>
    <path d="M0 0 C3.1985654 1.74952846 5.02024638 3.15341645 7.05859375 6.2109375 C7.05859375 7.5309375 7.05859375 8.8509375 7.05859375 10.2109375 C3.83347956 9.85259148 2.43412531 9.63826651 0.24609375 7.1484375 C-2.56924086 4.65485542 -4.36274632 4.55436465 -8.0390625 4.7734375 C-10.19247979 5.12481306 -10.19247979 5.12481306 -12.37890625 7.1484375 C-14.43200707 11.1725151 -15.1640041 14.69538104 -14.94140625 19.2109375 C-13.6403816 22.61838301 -12.50467647 24.64766728 -9.94140625 27.2109375 C-6.93702924 27.55570207 -4.84275611 27.78784683 -1.94140625 27.2109375 C0.74626953 24.77343725 0.74626953 24.77343725 3.05859375 22.2109375 C5.87109375 21.8984375 5.87109375 21.8984375 8.05859375 22.2109375 C6.67650796 26.43849403 5.66320582 29.24904976 1.80859375 31.6484375 C-1.86635596 33.44336031 -4.84854889 33.73184662 -8.94140625 33.2109375 C-13.62310893 31.46677376 -16.15389816 29.34057911 -18.94140625 25.2109375 C-20.91166082 19.3001738 -20.74602726 12.58245206 -18.75390625 6.7109375 C-14.24781635 0.49564109 -7.65376652 -3.11078639 0 0 Z " fill="white" transform="translate(461.94140625,453.7890625)"/>
    <path d="M0 0 C3.0564638 2.12623569 4.69298843 3.6423266 5.52734375 7.33203125 C5.78182675 9.54568476 5.90032823 11.77399708 6 14 C-2.415 14.495 -2.415 14.495 -11 15 C-10.34 16.32 -9.68 17.64 -9 19 C-6.13362718 20.08892339 -6.13362718 20.08892339 -3 20 C-1.63838689 19.03886134 -0.30144802 18.04115841 1 17 C3.25 17.3125 3.25 17.3125 5 18 C4.69611836 20.93752254 4.19330344 21.84080893 1.875 23.75 C-1.7098228 25.30861861 -4.12117952 25.41558791 -8 25 C-12.1574796 23.20472472 -14.3002055 21.20475482 -16 17 C-16.69451975 11.93508769 -16.54953028 8.13976651 -14.3125 3.5 C-9.91314595 -1.25605844 -6.21394623 -1.66444988 0 0 Z M-8.25 3.5625 C-10.55336108 5.21924117 -10.55336108 5.21924117 -12 10 C-7.71 10 -3.42 10 1 10 C0.67 8.35 0.34 6.7 0 5 C-4.02025917 3.27042545 -4.02025917 3.27042545 -8.25 3.5625 Z " fill="white" transform="translate(1028,462)"/>
    <path d="M0 0 C3.0564638 2.12623569 4.69298843 3.6423266 5.52734375 7.33203125 C5.78182675 9.54568476 5.90032823 11.77399708 6 14 C-2.415 14.495 -2.415 14.495 -11 15 C-10.34 16.32 -9.68 17.64 -9 19 C-6.13362718 20.08892339 -6.13362718 20.08892339 -3 20 C-1.63838689 19.03886134 -0.30144802 18.04115841 1 17 C3.25 17.3125 3.25 17.3125 5 18 C4.69611836 20.93752254 4.19330344 21.84080893 1.875 23.75 C-1.7098228 25.30861861 -4.12117952 25.41558791 -8 25 C-12.1574796 23.20472472 -14.3002055 21.20475482 -16 17 C-16.69451975 11.93508769 -16.54953028 8.13976651 -14.3125 3.5 C-9.91314595 -1.25605844 -6.21394623 -1.66444988 0 0 Z M-8.25 3.5625 C-10.55336108 5.21924117 -10.55336108 5.21924117 -12 10 C-7.71 10 -3.42 10 1 10 C0.67 8.35 0.34 6.7 0 5 C-4.02025917 3.27042545 -4.02025917 3.27042545 -8.25 3.5625 Z " fill="white" transform="translate(945,462)"/>
    <path d="M0 0 C3.0564638 2.12623569 4.69298843 3.6423266 5.52734375 7.33203125 C5.78182675 9.54568476 5.90032823 11.77399708 6 14 C-2.415 14.495 -2.415 14.495 -11 15 C-10.34 16.32 -9.68 17.64 -9 19 C-6.13362718 20.08892339 -6.13362718 20.08892339 -3 20 C-1.63838689 19.03886134 -0.30144802 18.04115841 1 17 C3.25 17.3125 3.25 17.3125 5 18 C4.69611836 20.93752254 4.19330344 21.84080893 1.875 23.75 C-1.7098228 25.30861861 -4.12117952 25.41558791 -8 25 C-12.1574796 23.20472472 -14.3002055 21.20475482 -16 17 C-16.69451975 11.93508769 -16.54953028 8.13976651 -14.3125 3.5 C-9.91314595 -1.25605844 -6.21394623 -1.66444988 0 0 Z M-8.25 3.5625 C-10.55336108 5.21924117 -10.55336108 5.21924117 -12 10 C-7.71 10 -3.42 10 1 10 C0.67 8.35 0.34 6.7 0 5 C-4.02025917 3.27042545 -4.02025917 3.27042545 -8.25 3.5625 Z " fill="white" transform="translate(374,462)"/>
    <path d="M0 0 C3 2.5625 3 2.5625 5 6 C5 8.64 5 11.28 5 14 C-0.61 14 -6.22 14 -12 14 C-9.65079137 19.14462031 -9.65079137 19.14462031 -6 20 C-2.99969942 20.34626591 -2.99969942 20.34626591 -1.4375 18.5 C-0.963125 18.005 -0.48875 17.51 0 17 C2.6875 17.3125 2.6875 17.3125 5 18 C3.60042311 21.38231081 2.26935579 23.27928642 -1 25 C-5.21829123 25.40174202 -7.87287261 25.42580368 -11.8125 23.9375 C-14.73457125 21.34937975 -16.17410293 18.7600051 -17 15 C-17.28555684 10.17072986 -16.66603282 6.34275965 -13.625 2.5 C-9.45168336 -1.47458728 -5.38954987 -1.67768089 0 0 Z M-8.75 4.125 C-11.40951809 5.9663587 -11.40951809 5.9663587 -12 10 C-7.71 10 -3.42 10 1 10 C-0.41762513 5.06188665 -0.41762513 5.06188665 -3.3125 3.5 C-6.06516698 2.73691738 -6.06516698 2.73691738 -8.75 4.125 Z " fill="white" transform="translate(733,462)"/>
    <path d="M0 0 C3 2.5625 3 2.5625 5 6 C5 8.64 5 11.28 5 14 C-0.61 14 -6.22 14 -12 14 C-9.65079137 19.14462031 -9.65079137 19.14462031 -6 20 C-2.99969942 20.34626591 -2.99969942 20.34626591 -1.4375 18.5 C-0.963125 18.005 -0.48875 17.51 0 17 C2.6875 17.3125 2.6875 17.3125 5 18 C3.60042311 21.38231081 2.26935579 23.27928642 -1 25 C-5.21829123 25.40174202 -7.87287261 25.42580368 -11.8125 23.9375 C-14.73457125 21.34937975 -16.17410293 18.7600051 -17 15 C-17.28555684 10.17072986 -16.66603282 6.34275965 -13.625 2.5 C-9.45168336 -1.47458728 -5.38954987 -1.67768089 0 0 Z M-8.75 4.125 C-11.40951809 5.9663587 -11.40951809 5.9663587 -12 10 C-7.71 10 -3.42 10 1 10 C-0.41762513 5.06188665 -0.41762513 5.06188665 -3.3125 3.5 C-6.06516698 2.73691738 -6.06516698 2.73691738 -8.75 4.125 Z " fill="white" transform="translate(418,462)"/>
    <path d="M0 0 C3.11697664 2.12219686 4.68609443 3.60148043 5.5234375 7.33203125 C5.78137087 9.54537845 5.90032409 11.77390473 6 14 C0.06 14 -5.88 14 -12 14 C-9.65389418 19.13028949 -9.65389418 19.13028949 -6.0625 20 C-2.4734966 20 -1.709031 19.1672248 1 17 C3.25 17.3125 3.25 17.3125 5 18 C3.55813953 22.56589147 3.55813953 22.56589147 1.3125 24.3125 C-3.00980514 25.59750964 -6.62807151 25.62360386 -10.75 23.75 C-13.99674043 21.22475744 -15.7771472 19.33340261 -16.46875 15.1953125 C-16.56352532 5.88363718 -16.56352532 5.88363718 -13.6875 2.3125 C-9.31901367 -1.4464301 -5.41229444 -1.49813998 0 0 Z M-8.75 4.125 C-11.40951809 5.9663587 -11.40951809 5.9663587 -12 10 C-7.71 10 -3.42 10 1 10 C-0.41762513 5.06188665 -0.41762513 5.06188665 -3.3125 3.5 C-6.06516698 2.73691738 -6.06516698 2.73691738 -8.75 4.125 Z " fill="white" transform="translate(706,462)"/>
    <path d="M0 0 C1.32 0 2.64 0 4 0 C4.33 2.97 4.66 5.94 5 9 C6.32 8.34 7.64 7.68 9 7 C15.07216495 7.31958763 15.07216495 7.31958763 17.875 9.375 C19.87718123 12.26703955 20.12178657 14.82809381 20.09765625 18.23046875 C20.09443359 19.03291016 20.09121094 19.83535156 20.08789062 20.66210938 C20.07951172 21.49548828 20.07113281 22.32886719 20.0625 23.1875 C20.05798828 24.03248047 20.05347656 24.87746094 20.04882812 25.74804688 C20.03705403 27.83206155 20.0191189 29.91603977 20 32 C18.35 32 16.7 32 15 32 C14.67 26.06 14.34 20.12 14 14 C11.525 13.01 11.525 13.01 9 12 C5.71439366 14.49706082 5.04194945 15.73216888 4.390625 19.890625 C4.32460767 21.34300623 4.2782503 22.79639364 4.25 24.25 C4.22035156 24.99507813 4.19070313 25.74015625 4.16015625 26.5078125 C4.0897657 28.33796672 4.04258168 30.16898769 4 32 C2.68 32 1.36 32 0 32 C0 21.44 0 10.88 0 0 Z " fill="white" transform="translate(332,454)"/>
    <path d="M0 0 C3.71538555 3.16203026 5.21695357 5.58357025 6.0625 10.375 C6.35657859 15.20279023 5.02438379 19.21270859 2 23 C-1.71603696 25.30469363 -4.64765403 25.45024269 -9 25 C-12.35734344 23.28965523 -14.40289105 21.97708737 -16.375 18.75 C-17.59217569 13.39442698 -17.83803577 9.03292376 -15.3125 4.125 C-11.26992448 -1.33793989 -6.447708 -2.18831302 0 0 Z M-9.8125 4.875 C-12.3569194 8.50988485 -12.74216936 10.55723017 -12.48828125 14.90234375 C-12.10068529 17.27891082 -12.10068529 17.27891082 -9.8125 19.625 C-7.12872683 21.19215443 -7.12872683 21.19215443 -4.375 21 C-1.36305971 19.73181461 -0.43836685 18.95243722 1 16 C1.57438485 12.16814489 1.52125688 9.06994834 -0.1875 5.5625 C-3.76776365 2.47606582 -5.85240006 2.23493338 -9.8125 4.875 Z " fill="white" transform="translate(547,462)"/>
    <path d="M0 0 C3.65965829 2.8209866 4.72048885 4.3252242 5.4765625 8.85546875 C5.70726893 13.74280226 5.81335246 17.76848343 2.625 21.6875 C-0.46844011 24.41267343 -1.21347372 24.94063953 -5.3125 25.25 C-10.2491846 24.91530952 -12.57580349 23.62063741 -15.8125 19.9375 C-17.56909764 15.59223215 -17.66542904 11.62103498 -17 7 C-15.30239041 3.47903197 -14.02875259 1.6572586 -10.75 -0.4375 C-6.95800497 -1.21313535 -3.65926102 -1.21729449 0 0 Z M-9.75 4.5 C-12.67411232 7.74901369 -13 9.65565296 -13 14 C-12.12441886 17.41920069 -12.12441886 17.41920069 -10 20 C-6.70676278 21.19117091 -4.96607476 21.3655418 -1.6875 20.125 C0.98407261 16.76079746 1.18500375 13.21808557 1 9 C0.07979268 5.96175425 0.07979268 5.96175425 -2 4 C-5.38111944 2.48739394 -6.48857908 2.72104313 -9.75 4.5 Z " fill="white" transform="translate(871,462)"/>
    <path d="M0 0 C1.65 0 3.3 0 5 0 C6.98 5.28 8.96 10.56 11 16 C12.6037636 11.10959824 12.6037636 11.10959824 14.20092773 6.21704102 C15.88888889 1.11111111 15.88888889 1.11111111 17 0 C18.66617115 -0.04063832 20.33388095 -0.042721 22 0 C20.02551108 6.97147911 17.69218502 13.71209794 15 20.4375 C14.65710938 21.32115234 14.31421875 22.20480469 13.9609375 23.11523438 C13.62320313 23.96279297 13.28546875 24.81035156 12.9375 25.68359375 C12.63714844 26.44212646 12.33679688 27.20065918 12.02734375 27.98217773 C10.91421899 30.16848384 9.94271053 31.50082396 8 33 C4.3125 33.1875 4.3125 33.1875 1 33 C1.33 31.68 1.66 30.36 2 29 C3.32 28.67 4.64 28.34 6 28 C7.79112748 22.00021232 5.81107113 17.84711858 3.5625 12.3125 C2.89297153 10.62273766 2.22742397 8.93139102 1.56640625 7.23828125 C1.26677979 6.49618408 0.96715332 5.75408691 0.65844727 4.98950195 C0 3 0 3 0 0 Z " fill="white" transform="translate(610,462)"/>
    <path d="M0 0 C2.5 2.5625 2.5 2.5625 4 5 C1 7 1 7 -1 7 C-1.433125 6.484375 -1.86625 5.96875 -2.3125 5.4375 C-2.869375 4.963125 -3.42625 4.48875 -4 4 C-6.65466049 4.23043864 -6.65466049 4.23043864 -9 5 C-9 5.99 -9 6.98 -9 8 C-8.31292969 8.17015625 -7.62585938 8.3403125 -6.91796875 8.515625 C-6.01691406 8.75796875 -5.11585938 9.0003125 -4.1875 9.25 C-2.84751953 9.59804688 -2.84751953 9.59804688 -1.48046875 9.953125 C1.43698099 11.18442662 2.47041517 12.25081264 4 15 C4 18.5625 4 18.5625 3 22 C0.16391137 24.58584552 -1.68710923 24.96647599 -5.5 25.375 C-9.23445618 24.97487969 -11.11315379 24.37740276 -14 22 C-14.8125 19.8125 -14.8125 19.8125 -15 18 C-13.68 17.67 -12.36 17.34 -11 17 C-10.67 17.99 -10.34 18.98 -10 20 C-5.85906302 20.20970559 -5.85906302 20.20970559 -2 19 C-2 18.01 -2 17.02 -2 16 C-2.77085937 15.75765625 -3.54171875 15.5153125 -4.3359375 15.265625 C-5.33882812 14.93046875 -6.34171875 14.5953125 -7.375 14.25 C-8.37273438 13.92515625 -9.37046875 13.6003125 -10.3984375 13.265625 C-13 12 -13 12 -14.36328125 10.01953125 C-15.22229596 7.2949263 -14.89817232 5.69451697 -14 3 C-10.35312702 -1.64147471 -5.37294995 -1.63242544 0 0 Z " fill="white" transform="translate(573,462)"/>
    <path d="M0 0 C2.33996751 1.75497564 2.88364225 3.5690338 3.75 6.3125 C2 7 2 7 -0.25 7.3125 C-0.889375 6.8175 -1.52875 6.3225 -2.1875 5.8125 C-4.20072841 3.99319452 -4.20072841 3.99319452 -7 4.625 C-7.7425 4.851875 -8.485 5.07875 -9.25 5.3125 C-9.58 6.3025 -9.91 7.2925 -10.25 8.3125 C-9.49074219 8.49425781 -8.73148438 8.67601562 -7.94921875 8.86328125 C-6.95535156 9.11464844 -5.96148438 9.36601562 -4.9375 9.625 C-3.95136719 9.86863281 -2.96523438 10.11226563 -1.94921875 10.36328125 C0.79664389 11.32890299 2.05721244 11.9743018 3.75 14.3125 C4.40044248 20.38329646 4.40044248 20.38329646 2.4375 23.1875 C-1.32085394 25.69306929 -4.86831184 25.61468539 -9.25 25.3125 C-12.125 24.0625 -12.125 24.0625 -14.25 22.3125 C-15.0625 20.125 -15.0625 20.125 -15.25 18.3125 C-13.4375 17.625 -13.4375 17.625 -11.25 17.3125 C-10.25 18.3125 -9.25 19.3125 -8.25 20.3125 C-5.70741537 20.81264953 -5.70741537 20.81264953 -3.25 20.3125 C-2.59 19.3225 -1.93 18.3325 -1.25 17.3125 C-2.8278125 16.6628125 -2.8278125 16.6628125 -4.4375 16 C-11.64893617 12.91356383 -11.64893617 12.91356383 -14.25 10.3125 C-14.71889952 3.98235646 -14.71889952 3.98235646 -12.9375 1.4375 C-8.92396748 -1.23818835 -4.53250322 -1.38493154 0 0 Z " fill="white" transform="translate(775.25,461.6875)"/>
    <path d="M0 0 C3 2 3 2 4 5 C4.0806622 6.48123547 4.10761193 7.96582204 4.09765625 9.44921875 C4.09443359 10.29677734 4.09121094 11.14433594 4.08789062 12.01757812 C4.07951172 12.89865234 4.07113281 13.77972656 4.0625 14.6875 C4.05798828 15.58017578 4.05347656 16.47285156 4.04882812 17.39257812 C4.03704983 19.59511987 4.02060164 21.79752599 4 24 C2.68 24 1.36 24 0 24 C-0.06058594 22.87980469 -0.12117187 21.75960938 -0.18359375 20.60546875 C-0.26801424 19.13280016 -0.35266149 17.66014456 -0.4375 16.1875 C-0.47681641 15.44951172 -0.51613281 14.71152344 -0.55664062 13.95117188 C-0.74381035 10.76928658 -0.98720793 8.03837622 -2 5 C-4.35367713 4.3121764 -4.35367713 4.3121764 -7 4 C-10.13270409 5.59266174 -10.13270409 5.59266174 -10.43237305 7.87939453 C-10.45855713 8.62302246 -10.48474121 9.36665039 -10.51171875 10.1328125 C-10.54716797 10.93847656 -10.58261719 11.74414062 -10.61914062 12.57421875 C-10.64169922 13.41597656 -10.66425781 14.25773437 -10.6875 15.125 C-10.72166016 15.97449219 -10.75582031 16.82398438 -10.79101562 17.69921875 C-10.87359173 19.79901105 -10.93846978 21.89948564 -11 24 C-12.65 24 -14.3 24 -16 24 C-16 16.08 -16 8.16 -16 0 C-13.69 0 -11.38 0 -9 0 C-5.88109857 -1.55945072 -3.34501482 -0.64552918 0 0 Z " fill="white" transform="translate(844,462)"/>
    <path d="M0 0 C1.32 0 2.64 0 4 0 C4.06058594 1.20398438 4.12117188 2.40796875 4.18359375 3.6484375 C4.26799732 5.22397077 4.35264541 6.79949096 4.4375 8.375 C4.47681641 9.1690625 4.51613281 9.963125 4.55664062 10.78125 C4.68893404 15.02601221 4.68893404 15.02601221 6 19 C8.91634129 19.2502157 8.91634129 19.2502157 12 19 C14.48044315 15.27933528 14.44381173 12.13459526 14.625 7.8125 C14.68300781 6.68811523 14.68300781 6.68811523 14.7421875 5.54101562 C14.83628216 3.69440801 14.91922319 1.8472381 15 0 C16.32 0 17.64 0 19 0 C19 7.92 19 15.84 19 24 C17.35 23.67 15.7 23.34 14 23 C13.38125 23.33 12.7625 23.66 12.125 24 C8.82665825 25.55216082 6.45649507 24.87983511 3 24 C0.98953674 21.91807546 0.08747193 20.58816252 -0.34057617 17.70996094 C-0.32486572 16.89301758 -0.30915527 16.07607422 -0.29296875 15.234375 C-0.28330078 14.34492188 -0.27363281 13.45546875 -0.26367188 12.5390625 C-0.23853516 11.61867188 -0.21339844 10.69828125 -0.1875 9.75 C-0.16719727 8.34621094 -0.16719727 8.34621094 -0.14648438 6.9140625 C-0.11119954 4.60878673 -0.06190281 2.3046894 0 0 Z " fill="white" transform="translate(476,462)"/>
    <path d="M0 0 C1.32 0 2.64 0 4 0 C4 1.98 4 3.96 4 6 C5.65 6 7.3 6 9 6 C9 7.32 9 8.64 9 10 C7.35 10 5.7 10 4 10 C4.33 15.28 4.66 20.56 5 26 C6.32 26 7.64 26 9 26 C9.33 27.32 9.66 28.64 10 30 C7.18263828 30.78260048 5.54030762 31.19511109 2.75 30.1875 C1 29 1 29 0 27 C-0.07194869 24.11629667 -0.09291708 21.25760336 -0.0625 18.375 C-0.05798828 17.57320313 -0.05347656 16.77140625 -0.04882812 15.9453125 C-0.03703168 13.96350994 -0.01909605 11.98174567 0 10 C-1.32 10 -2.64 10 -4 10 C-4 8.68 -4 7.36 -4 6 C-2.68 6 -1.36 6 0 6 C0 4.02 0 2.04 0 0 Z " fill="white" transform="translate(746,456)"/>
    <path d="M0 0 C1.32 0 2.64 0 4 0 C4 1.98 4 3.96 4 6 C5.65 6 7.3 6 9 6 C9 7.32 9 8.64 9 10 C7.35 10 5.7 10 4 10 C4.33 15.28 4.66 20.56 5 26 C6.32 26 7.64 26 9 26 C9.33 27.32 9.66 28.64 10 30 C7.18263828 30.78260048 5.54030762 31.19511109 2.75 30.1875 C1 29 1 29 0 27 C-0.07194869 24.11629667 -0.09291708 21.25760336 -0.0625 18.375 C-0.05798828 17.57320313 -0.05347656 16.77140625 -0.04882812 15.9453125 C-0.03703168 13.96350994 -0.01909605 11.98174567 0 10 C-1.32 10 -2.64 10 -4 10 C-4 8.68 -4 7.36 -4 6 C-2.68 6 -1.36 6 0 6 C0 4.02 0 2.04 0 0 Z " fill="white" transform="translate(596,456)"/>
    <path d="M0 0 C1.65 0 3.3 0 5 0 C5 10.56 5 21.12 5 32 C3.35 32 1.7 32 0 32 C0 21.44 0 10.88 0 0 Z " fill="white" transform="translate(918,454)"/>
    <path d="M0 0 C0 1.65 0 3.3 0 5 C-2.31 5.66 -4.62 6.32 -7 7 C-7.33 12.94 -7.66 18.88 -8 25 C-9.65 25 -11.3 25 -13 25 C-13 17.08 -13 9.16 -13 1 C-11.02 1 -9.04 1 -7 1 C-4.53721199 -0.231394 -2.7204945 -0.07159196 0 0 Z " fill="white" transform="translate(515,461)"/>
    <path d="M0 0 C0 1.65 0 3.3 0 5 C-1.134375 5.309375 -2.26875 5.61875 -3.4375 5.9375 C-6.78775099 6.62924531 -6.78775099 6.62924531 -8 8 C-8.23701239 10.85877909 -8.42219182 13.69883297 -8.5625 16.5625 C-8.60568359 17.36880859 -8.64886719 18.17511719 -8.69335938 19.00585938 C-8.79975262 21.00368805 -8.90040888 23.0018207 -9 25 C-10.32 25 -11.64 25 -13 25 C-13 17.08 -13 9.16 -13 1 C-10.525 1.495 -10.525 1.495 -8 2 C-4.77208445 -0.1519437 -3.71599191 -0.20086443 0 0 Z " fill="white" transform="translate(399,461)"/>
    <path d="M0 0 C1.32 0 2.64 0 4 0 C4 7.92 4 15.84 4 24 C2.68 24 1.36 24 0 24 C0 16.08 0 8.16 0 0 Z " fill="white" transform="translate(583,462)"/>
    <path d="M0 0 C1.32 0 2.64 0 4 0 C4 7.92 4 15.84 4 24 C2.68 24 1.36 24 0 24 C0 16.08 0 8.16 0 0 Z " fill="white" transform="translate(520,462)"/>
    <path d="M0 0 C1.65 0.33 3.3 0.66 5 1 C4.67 2.32 4.34 3.64 4 5 C2.35 4.67 0.7 4.34 -1 4 C-0.67 2.68 -0.34 1.36 0 0 Z " fill="white" transform="translate(583,453)"/>
    <path d="M0 0 C1.65 0.33 3.3 0.66 5 1 C4.67 2.32 4.34 3.64 4 5 C2.35 4.67 0.7 4.34 -1 4 C-0.67 2.68 -0.34 1.36 0 0 Z " fill="white" transform="translate(520,453)"/>
    <path d="" fill="white" transform="translate(0,0)"/>
</svg>
