<svg width="175" height="175" viewBox="0 0 175 175" fill="none" xmlns="http://www.w3.org/2000/svg">
<g clip-path="url(#clip0_213_915)">
<path d="M87.5 0C39.375 0 0 39.375 0 87.5C0 135.625 39.375 175 87.5 175C135.898 175 175 135.625 175 87.5C175 39.375 135.898 0 87.5 0ZM87.5 169.805C42.1094 169.805 5.19531 132.891 5.19531 87.5C5.19531 42.1094 42.1094 5.19531 87.5 5.19531C132.891 5.19531 169.805 42.1094 169.805 87.5C169.805 132.891 132.891 169.805 87.5 169.805Z" fill="#AD59D4"/>
<path d="M87.5 5.19531C42.1094 5.19531 5.19531 42.1094 5.19531 87.5C5.19531 132.891 42.1094 169.805 87.5 169.805C132.891 169.805 169.805 132.891 169.805 87.5C169.805 42.1094 132.891 5.19531 87.5 5.19531ZM87.5 34.7266C100.625 34.7266 111.562 45.3906 111.562 58.7891C111.562 71.9141 100.898 82.8516 87.5 82.8516C74.375 82.8516 63.4375 72.1875 63.4375 58.7891C63.7109 45.6641 74.375 34.7266 87.5 34.7266ZM130.977 137.813H44.0234C42.6563 137.813 41.2891 136.719 41.2891 135.078C41.2891 109.648 62.0703 88.8672 87.5 88.8672C112.93 88.8672 133.711 109.648 133.711 135.078C133.711 136.719 132.617 137.813 130.977 137.813Z" fill="#8526FE"/>
<path d="M87.5 5.19531C42.1094 5.19531 5.19531 42.1094 5.19531 87.5C5.19531 132.891 42.1094 169.805 87.5 169.805C132.891 169.805 169.805 132.891 169.805 87.5C169.805 42.1094 132.891 5.19531 87.5 5.19531ZM87.5 164.336C45.1172 164.336 10.6641 129.883 10.6641 87.5C10.6641 45.1172 45.1172 10.6641 87.5 10.6641C129.883 10.6641 164.336 45.1172 164.336 87.5C164.336 129.883 129.883 164.336 87.5 164.336Z" fill="#5FE4D4"/>
<path d="M87.5 88.8672C62.0703 88.8672 41.2891 109.648 41.2891 135.078C41.2891 136.445 42.3828 137.812 44.0234 137.812H131.25C132.617 137.812 133.984 136.719 133.984 135.078C133.711 109.648 112.93 88.8672 87.5 88.8672ZM46.7578 132.617C48.125 111.289 65.8984 94.3359 87.5 94.3359C109.102 94.3359 126.875 111.289 128.242 132.617H46.7578Z" fill="#AD59D4"/>
<path d="M128.242 132.617H46.7578C48.125 111.289 65.8984 94.3359 87.5 94.3359C109.102 94.3359 126.875 111.289 128.242 132.617Z" fill="#D8A353"/>
<path d="M87.5 34.7266C74.375 34.7266 63.4375 45.3906 63.4375 58.7891C63.4375 71.9141 74.1016 82.8516 87.5 82.8516C100.625 82.8516 111.562 72.1875 111.562 58.7891C111.562 45.6641 100.625 34.7266 87.5 34.7266ZM87.5 77.3828C77.1094 77.3828 68.9063 69.1797 68.9063 58.7891C68.9063 48.3984 77.3828 40.1953 87.5 40.1953C97.8906 40.1953 106.094 48.6719 106.094 58.7891C106.094 68.9063 97.8906 77.3828 87.5 77.3828Z" fill="#AD59D4"/>
<path d="M106.094 58.7891C106.094 69.1797 97.6172 77.3828 87.5 77.3828C77.1094 77.3828 68.9062 69.1797 68.9062 58.7891C68.9062 48.3984 77.3828 40.1953 87.5 40.1953C97.8906 40.1953 106.094 48.3984 106.094 58.7891Z" fill="#FFDEAB"/>
<path d="M87.5 94.3359C65.8984 94.3359 48.125 111.289 46.7578 132.617H128.516C126.875 111.289 109.102 94.3359 87.5 94.3359ZM87.5 98.4375C105.273 98.4375 120.586 111.289 123.594 128.516H51.4062C54.4141 111.289 69.7266 98.4375 87.5 98.4375Z" fill="#E1AB5A"/>
<path d="M87.5 40.1953C77.1094 40.1953 68.9062 48.6719 68.9062 58.7891C68.9062 68.9062 77.3828 77.3828 87.5 77.3828C97.8906 77.3828 106.094 69.1797 106.094 58.7891C106.094 48.3984 97.8906 40.1953 87.5 40.1953ZM87.5 73.2812C79.5703 73.2812 73.0078 66.7188 73.0078 58.7891C73.0078 50.8594 79.5703 44.2969 87.5 44.2969C95.4297 44.2969 101.992 50.8594 101.992 58.7891C101.992 66.7188 95.4297 73.2812 87.5 73.2812Z" fill="#F0CE9A"/>
</g>
<defs>
<clipPath id="clip0_213_915">
<rect width="175" height="175" fill="white"/>
</clipPath>
</defs>
</svg>
